<?xml version="1.0" encoding="utf-8"?>
<svg viewBox="0 0 500 500" xmlns="http://www.w3.org/2000/svg">
  <text style="white-space: pre; fill: rgb(51, 51, 51); font-family: Arial, sans-serif; font-size: 15.3px;" x="212.336" y="38.755"> </text>
  <path style="fill: rgba(216, 216, 216, 0); stroke-width: 9px;" d="M 158.368 158.15 L 186.59 158.016 L 241.971 158.513 L 260.247 199.734 L 282.599 157.71 L 314.896 157.667 C 359.322 157.667 386.698 201.71 364.181 236.937 C 354.059 252.769 335.941 266.157 315.997 265.942 L 298.254 265.742" transform="matrix(0.999998, -0.002031, 0.002031, 0.999998, -0.42963, 0.539259)"/>
  <path d="M 158.389 152.861 L 186.688 152.727 L 242.069 153.224 L 245.593 153.255 L 246.982 156.386 L 260.716 187.361 L 277.76 155.316 L 279.296 152.424 L 282.638 152.42 L 314.943 152.378 C 338.602 152.783 359.11 164.914 369.314 181.331 C 379.547 197.788 380.472 220.517 368.807 239.685 C 358.009 256.237 337.522 270.89 315.884 271.221 L 298.141 271.02 L 298.365 260.453 L 316.109 260.654 C 334.359 261.415 350.108 249.29 359.555 234.176 C 370.407 218.118 368.903 201.215 359.969 186.843 C 351.008 172.43 335.616 162.54 314.85 162.945 L 285.901 162.984 L 265.085 202.117 L 259.777 212.095 L 255.238 201.849 L 238.351 163.759 L 186.532 163.294 L 158.346 163.427 L 158.389 152.861 Z" style="fill: none; stroke-width: 9px;" transform="matrix(0.999998, -0.002031, 0.002031, 0.999998, -0.429612, 0.544358)"/>
  <path d="M 158.389 152.861 L 186.688 152.727 L 242.069 153.224 L 245.593 153.255 L 246.982 156.386 L 260.716 187.361 L 277.76 155.316 L 279.296 152.424 L 282.638 152.42 L 314.943 152.378 C 338.602 152.783 359.11 164.914 369.314 181.331 C 379.547 197.788 380.472 220.517 368.807 239.685 C 358.009 256.237 337.522 270.89 315.884 271.221 L 298.141 271.02 L 298.365 260.453 L 316.109 260.654 C 334.359 261.415 350.108 249.29 359.555 234.176 C 370.407 218.118 368.903 201.215 359.969 186.843 C 351.008 172.43 335.616 162.54 314.85 162.945 L 285.901 162.984 L 265.085 202.117 L 259.777 212.095 L 255.238 201.849 L 238.351 163.759 L 186.532 163.294 L 158.346 163.427 L 158.389 152.861 Z" style="fill: none; stroke-width: 9px;" transform="matrix(0.999998, -0.002031, 0.002031, 0.999998, -0.429612, 0.544358)"/>
  <g transform="matrix(1, 0, 0, 1, 0.000005, -0.000021)">
    <g>
      <path d="M 153.218 152.745 L 209.071 152.943 L 265.655 153.042 L 269.254 153.073 L 270.676 156.18 L 284.714 186.948 L 302.118 155.12 L 303.687 152.246 L 307.102 152.242 L 340.108 152.2 C 364.279 152.601 385.235 164.651 395.662 180.96 C 406.121 197.303 407.073 219.881 395.161 238.92 C 384.132 255.354 363.208 269.912 341.101 270.243 L 322.972 270.042 L 323.199 259.546 L 341.324 259.747 C 359.971 260.5 376.06 248.458 385.707 233.446 C 396.788 217.5 395.248 200.706 386.117 186.437 C 376.959 172.119 361.232 162.295 340.015 162.696 L 310.438 162.738 L 289.183 201.604 L 283.762 211.515 L 279.119 201.336 L 261.898 162.966 L 209.098 162.859 L 180.098 162.8 L 153.498 162.746" style="stroke-width: 9px;" transform="matrix(0.999998, -0.002031, 0.002031, 0.999998, -0.428416, 0.566089)"/>
      <polyline style="stroke: rgb(0, 0, 0); paint-order: fill; fill: rgba(216, 216, 216, 0); stroke-width: 9px;" points="205.146 158.457 204.213 263.883 154.882 264.051 254.674 263.78" transform="matrix(0.999998, -0.002031, 0.002031, 0.999998, -0.428635, 0.41634)"/>
    </g>
  </g>
  <path d="M 158.397 151.1 L 186.722 150.966 L 242.103 151.463 L 245.626 151.494 L 246.8 151.505 L 247.262 152.547 L 248.652 155.679 L 260.872 183.24 L 276.147 154.52 L 277.683 151.628 L 278.195 150.663 L 279.307 150.663 L 282.649 150.66 L 314.991 150.617 C 339.102 151.149 360.366 163.702 370.873 180.412 C 381.234 197.288 382.131 220.965 370.338 240.619 C 359.311 257.41 338.013 272.478 315.847 272.982 L 298.104 272.781 L 296.287 272.76 L 296.325 270.999 L 296.55 260.432 L 296.587 258.671 L 298.403 258.692 L 316.2 258.893 C 333.846 259.848 348.808 248.096 358.038 233.222 C 368.743 217.724 367.219 201.758 358.411 187.763 C 349.722 173.625 335.086 164.157 314.837 164.706 L 287.001 164.745 L 266.7 202.913 L 261.392 212.892 L 259.622 216.217 L 258.108 212.804 L 253.567 202.557 L 237.144 165.509 L 186.514 165.055 L 158.338 165.189 L 156.521 165.196 L 156.529 163.435 L 156.573 152.868 L 160.206 152.854 L 160.171 161.659 L 186.541 161.533 L 238.385 161.998 L 239.558 162.008 L 240.021 163.051 L 256.907 201.141 L 259.934 207.975 L 263.473 201.321 L 284.288 162.188 L 284.801 161.223 L 285.913 161.223 L 314.858 161.184 C 336.129 160.934 352.294 171.236 361.529 185.924 C 370.586 200.673 372.092 218.478 361.095 235.099 C 351.431 250.44 334.901 262.961 316.064 262.415 L 300.144 262.236 L 299.994 269.28 L 315.907 269.46 C 337.003 269.287 356.694 255.075 367.26 238.773 C 378.783 220.095 377.86 198.288 367.755 182.251 C 357.853 166.126 338.115 154.425 314.92 154.139 L 282.625 154.182 L 280.395 154.185 L 279.372 156.112 L 262.329 188.157 L 260.559 191.483 L 259.046 188.069 L 245.312 157.095 L 244.386 155.006 L 242.036 154.985 L 186.669 154.488 L 158.381 154.622 L 158.397 151.1 Z" style="fill: none; stroke-width: 9px;" transform="matrix(0.999998, -0.002031, 0.002031, 0.999998, -0.429613, 0.544171)"/>
</svg>