<svg version="1.1" id="Layer_1" xmlns="http://www.w3.org/2000/svg" xmlns:xlink="http://www.w3.org/1999/xlink" x="0px" y="0px"
	 width="100%" viewBox="0 0 500 500" enable-background="new 0 0 500 500" xml:space="preserve">
<path fill="#000000" opacity="1.000000" stroke="none" 
	d="
M228.000000,501.000000 
	C152.000015,501.000000 76.500038,501.000000 1.000041,501.000000 
	C1.000027,334.333405 1.000027,167.666779 1.000013,1.000130 
	C167.666565,1.000087 334.333130,1.000087 500.999756,1.000043 
	C500.999847,167.666534 500.999847,334.333069 500.999939,500.999817 
	C410.166656,501.000000 319.333344,501.000000 228.000000,501.000000 
M303.130585,179.334976 
	C305.415985,175.278168 307.535919,171.113434 310.074341,167.221649 
	C310.993866,165.811859 312.920441,164.135544 314.377533,164.144867 
	C326.784332,164.224335 339.222870,164.202118 351.585266,165.114166 
	C366.763672,166.233948 378.006989,174.794250 386.193451,186.931061 
	C392.754547,196.658127 396.387421,207.725082 392.881561,219.621628 
	C390.549438,227.535095 386.308136,234.452377 380.845001,240.921677 
	C370.346893,253.353271 357.804047,260.515991 341.266998,260.026672 
	C335.649200,259.860443 330.022278,260.000336 324.204224,260.000336 
	C324.204224,263.785400 324.204224,267.187958 324.204224,271.005707 
	C336.302368,270.535400 348.416229,272.736481 360.012421,268.450043 
	C373.184723,263.581024 384.188202,255.748734 393.069092,244.606049 
	C404.604279,230.133057 407.997925,213.677414 403.514221,196.482819 
	C396.365326,169.067291 372.198364,155.276962 347.588043,153.201645 
	C334.190338,152.071854 320.618256,152.931686 307.127411,153.102081 
	C305.713867,153.119949 303.764099,154.199356 303.014862,155.386780 
	C300.446777,159.456863 298.329987,163.809616 295.990356,168.026443 
	C292.648193,174.050247 289.261230,180.049210 285.600677,186.581177 
	C280.400787,175.284042 275.519348,164.678757 270.604126,154.000031 
	C251.136505,154.000031 231.819000,154.000031 212.501495,154.000031 
	C193.074738,154.000031 173.647995,154.000031 154.278778,154.000031 
	C154.278778,157.629501 154.278778,160.702866 154.278778,164.111954 
	C170.022186,164.111954 185.488342,164.111954 200.997253,165.034286 
	C200.997253,196.555786 200.997253,228.077301 200.997253,260.000000 
	C186.498566,260.000000 173.358292,260.501312 160.283920,259.790466 
	C153.655853,259.430145 155.399216,263.562408 155.192078,266.643555 
	C154.960007,270.095428 157.649368,270.032349 160.240387,270.028595 
	C190.889343,269.984131 221.538391,270.003571 252.187424,269.987335 
	C253.446915,269.986664 254.706299,269.800140 255.643646,269.725739 
	C255.643646,266.224518 255.643646,263.149872 255.643646,259.697754 
	C240.220123,259.697754 225.151337,259.697754 211.000000,259.697754 
	C211.000000,243.562775 210.994324,227.824448 211.001587,212.086105 
	C211.008957,196.095612 211.029083,180.105118 211.970169,164.009125 
	C227.110733,164.006073 242.252029,164.081650 257.391266,163.938248 
	C260.695984,163.906937 262.917664,164.398773 264.096710,168.003326 
	C265.334320,171.786911 267.285400,175.343994 269.005920,178.961411 
	C273.340271,188.074402 277.642273,197.204849 282.168549,206.222198 
	C282.826263,207.532486 283.816254,210.537643 286.950317,207.565979 
	C292.244659,198.377121 297.539032,189.188278 303.130585,179.334976 
z"/>
<path fill="#FFFCFC" opacity="1.000000" stroke="none" 
	d="
M200.954498,164.111954 
	C185.488342,164.111954 170.022186,164.111954 154.278778,164.111954 
	C154.278778,160.702866 154.278778,157.629501 154.278778,154.000031 
	C173.647995,154.000031 193.074738,154.000031 212.501495,154.000031 
	C231.819000,154.000031 251.136505,154.000031 270.604126,154.000031 
	C275.519348,164.678757 280.400787,175.284042 285.600677,186.581177 
	C289.261230,180.049210 292.648193,174.050247 295.990356,168.026443 
	C298.329987,163.809616 300.446777,159.456863 303.014862,155.386780 
	C303.764099,154.199356 305.713867,153.119949 307.127411,153.102081 
	C320.618256,152.931686 334.190338,152.071854 347.588043,153.201645 
	C372.198364,155.276962 396.365326,169.067291 403.514221,196.482819 
	C407.997925,213.677414 404.604279,230.133057 393.069092,244.606049 
	C384.188202,255.748734 373.184723,263.581024 360.012421,268.450043 
	C348.416229,272.736481 336.302368,270.535400 324.204224,271.005707 
	C324.204224,267.187958 324.204224,263.785400 324.204224,260.000336 
	C330.022278,260.000336 335.649200,259.860443 341.266998,260.026672 
	C357.804047,260.515991 370.346893,253.353271 380.845001,240.921677 
	C386.308136,234.452377 390.549438,227.535095 392.881561,219.621628 
	C396.387421,207.725082 392.754547,196.658127 386.193451,186.931061 
	C378.006989,174.794250 366.763672,166.233948 351.585266,165.114166 
	C339.222870,164.202118 326.784332,164.224335 314.377533,164.144867 
	C312.920441,164.135544 310.993866,165.811859 310.074341,167.221649 
	C307.535919,171.113434 305.415985,175.278168 302.623901,179.676361 
	C301.415741,180.375687 300.389618,180.547409 300.061493,181.119507 
	C295.184814,189.621841 290.394196,198.173615 285.641632,206.746063 
	C285.547974,206.914978 286.156830,207.473358 286.437927,207.850037 
	C283.816254,210.537643 282.826263,207.532486 282.168549,206.222198 
	C277.642273,197.204849 273.340271,188.074402 269.005920,178.961411 
	C267.285400,175.343994 265.334320,171.786911 264.096710,168.003326 
	C262.917664,164.398773 260.695984,163.906937 257.391266,163.938248 
	C242.252029,164.081650 227.110733,164.006073 211.456070,163.674561 
	C209.399384,162.227402 207.629883,160.001190 206.366440,160.258621 
	C204.383102,160.662750 202.741074,162.742065 200.954498,164.111954 
z"/>
<path fill="#FFFFFF" opacity="1.000000" stroke="none" 
	d="
M200.975876,164.573120 
	C202.741074,162.742065 204.383102,160.662750 206.366440,160.258621 
	C207.629883,160.001190 209.399384,162.227402 210.992798,163.727295 
	C211.029083,180.105118 211.008957,196.095612 211.001587,212.086105 
	C210.994324,227.824448 211.000000,243.562775 211.000000,259.697754 
	C225.151337,259.697754 240.220123,259.697754 255.643646,259.697754 
	C255.643646,263.149872 255.643646,266.224518 255.643646,269.725739 
	C254.706299,269.800140 253.446915,269.986664 252.187424,269.987335 
	C221.538391,270.003571 190.889343,269.984131 160.240387,270.028595 
	C157.649368,270.032349 154.960007,270.095428 155.192078,266.643555 
	C155.399216,263.562408 153.655853,259.430145 160.283920,259.790466 
	C173.358292,260.501312 186.498566,260.000000 200.997253,260.000000 
	C200.997253,228.077301 200.997253,196.555786 200.975876,164.573120 
z"/>
<path fill="#FFFCFC" opacity="1.000000" stroke="none" 
	d="
M286.694122,207.708008 
	C286.156830,207.473358 285.547974,206.914978 285.641632,206.746063 
	C290.394196,198.173615 295.184814,189.621841 300.061493,181.119507 
	C300.389618,180.547409 301.415741,180.375687 302.475281,180.008575 
	C297.539032,189.188278 292.244659,198.377121 286.694122,207.708008 
z"/>
</svg>