<svg version="1.1" id="Layer_1" xmlns="http://www.w3.org/2000/svg" xmlns:xlink="http://www.w3.org/1999/xlink" x="0px" y="0px"
	 width="100%" viewBox="0 0 412 155" enable-background="new 0 0 412 155" xml:space="preserve">
<path fill="#020202" opacity="1.000000" stroke="none" 
	d="
M320.000000,156.000000 
	C213.333359,156.000000 107.166733,156.000000 1.000071,156.000000 
	C1.000047,104.333382 1.000047,52.666759 1.000024,1.000106 
	C138.333237,1.000071 275.666473,1.000071 412.999817,1.000035 
	C412.999878,52.666565 412.999878,104.333130 412.999939,155.999847 
	C382.166656,156.000000 351.333344,156.000000 320.000000,156.000000 
M132.331360,106.099709 
	C139.706528,120.386002 147.081696,134.672287 154.980377,149.972672 
	C161.038559,133.983704 166.733734,119.088478 172.246124,104.125893 
	C172.651749,103.024895 172.012436,101.297798 171.398285,100.097466 
	C155.651779,69.320877 139.857010,38.568920 123.994911,7.851783 
	C123.407478,6.714190 122.069809,5.175705 121.063522,5.161986 
	C107.825829,4.981510 94.584839,5.041858 80.655693,5.041858 
	C98.000443,38.962471 114.994431,72.197113 132.331360,106.099709 
M211.324677,124.499741 
	C211.324677,132.944061 211.324677,141.388367 211.324677,149.841431 
	C223.231186,149.841431 234.478607,149.841431 245.765594,149.841431 
	C245.765594,101.510124 245.765594,53.458374 245.765594,5.336911 
	C234.281281,5.336911 223.072403,5.336911 211.322189,5.336911 
	C211.322189,44.939430 211.322189,84.219574 211.324677,124.499741 
M39.221081,47.500092 
	C39.221081,33.743698 39.221081,19.987307 39.221081,6.147040 
	C27.590734,6.147040 16.520975,6.147040 5.397643,6.147040 
	C5.397643,54.553032 5.397643,102.698921 5.397643,150.670013 
	C16.859688,150.670013 27.945225,150.670013 39.220062,150.670013 
	C39.220062,116.405617 39.220062,82.452858 39.221081,47.500092 
M311.089783,25.500175 
	C311.089783,18.750399 311.089783,12.000623 311.089783,5.275978 
	C299.632416,5.275978 288.884216,5.275978 278.015930,5.275978 
	C278.015930,53.666695 278.015930,101.800949 278.015930,149.911560 
	C289.174072,149.911560 299.933624,149.911560 311.090179,149.911560 
	C311.090179,108.631393 311.090179,67.565758 311.089783,25.500175 
M356.375092,15.180228 
	C371.520416,47.446449 372.742493,80.992279 365.452026,115.277252 
	C362.828278,127.616081 358.220825,139.193390 350.483795,150.084793 
	C367.010040,148.785614 379.927979,141.984680 389.933777,130.054123 
	C404.607666,112.557579 410.382721,92.195854 408.044373,69.519814 
	C405.724548,47.023567 396.463196,28.218641 377.898651,14.776814 
	C370.102295,9.131812 361.167114,6.008601 350.699127,5.970144 
	C352.729858,9.244391 354.370209,11.889189 356.375092,15.180228 
M62.085896,146.586472 
	C60.922707,147.580124 59.759521,148.573776 58.311806,149.810486 
	C78.784256,149.810486 98.632034,149.810486 117.219482,149.810486 
	C112.193031,144.347275 106.239960,138.762299 101.380371,132.348770 
	C96.415710,125.796585 92.524223,118.431252 88.187912,111.462044 
	C82.265739,124.620285 74.069611,136.575470 62.085896,146.586472 
z"/>
<path fill="#FDFDFD" opacity="1.000000" stroke="none" 
	d="
M132.159882,105.765732 
	C114.994431,72.197113 98.000443,38.962471 80.655693,5.041858 
	C94.584839,5.041858 107.825829,4.981510 121.063522,5.161986 
	C122.069809,5.175705 123.407478,6.714190 123.994911,7.851783 
	C139.857010,38.568920 155.651779,69.320877 171.398285,100.097466 
	C172.012436,101.297798 172.651749,103.024895 172.246124,104.125893 
	C166.733734,119.088478 161.038559,133.983704 154.980377,149.972672 
	C147.081696,134.672287 139.706528,120.386002 132.159882,105.765732 
z"/>
<path fill="#FCFCFC" opacity="1.000000" stroke="none" 
	d="
M211.323425,123.999733 
	C211.322189,84.219574 211.322189,44.939430 211.322189,5.336911 
	C223.072403,5.336911 234.281281,5.336911 245.765594,5.336911 
	C245.765594,53.458374 245.765594,101.510124 245.765594,149.841431 
	C234.478607,149.841431 223.231186,149.841431 211.324677,149.841431 
	C211.324677,141.388367 211.324677,132.944061 211.323425,123.999733 
z"/>
<path fill="#FEFEFE" opacity="1.000000" stroke="none" 
	d="
M39.220573,48.000092 
	C39.220062,82.452858 39.220062,116.405617 39.220062,150.670013 
	C27.945225,150.670013 16.859688,150.670013 5.397643,150.670013 
	C5.397643,102.698921 5.397643,54.553032 5.397643,6.147040 
	C16.520975,6.147040 27.590734,6.147040 39.221081,6.147040 
	C39.221081,19.987307 39.221081,33.743698 39.220573,48.000092 
z"/>
<path fill="#FFFFFF" opacity="1.000000" stroke="none" 
	d="
M311.089966,26.000153 
	C311.090179,67.565758 311.090179,108.631393 311.090179,149.911560 
	C299.933624,149.911560 289.174072,149.911560 278.015930,149.911560 
	C278.015930,101.800949 278.015930,53.666695 278.015930,5.275978 
	C288.884216,5.275978 299.632416,5.275978 311.089783,5.275978 
	C311.089783,12.000623 311.089783,18.750399 311.089966,26.000153 
z"/>
<path fill="#FDFDFD" opacity="1.000000" stroke="none" 
	d="
M356.192810,14.857107 
	C354.370209,11.889189 352.729858,9.244391 350.699127,5.970144 
	C361.167114,6.008601 370.102295,9.131812 377.898651,14.776814 
	C396.463196,28.218641 405.724548,47.023567 408.044373,69.519814 
	C410.382721,92.195854 404.607666,112.557579 389.933777,130.054123 
	C379.927979,141.984680 367.010040,148.785614 350.483795,150.084793 
	C358.220825,139.193390 362.828278,127.616081 365.452026,115.277252 
	C372.742493,80.992279 371.520416,47.446449 356.192810,14.857107 
z"/>
<path fill="#FCFCFC" opacity="1.000000" stroke="none" 
	d="
M62.349358,146.349472 
	C74.069611,136.575470 82.265739,124.620285 88.187912,111.462044 
	C92.524223,118.431252 96.415710,125.796585 101.380371,132.348770 
	C106.239960,138.762299 112.193031,144.347275 117.219482,149.810486 
	C98.632034,149.810486 78.784256,149.810486 58.311806,149.810486 
	C59.759521,148.573776 60.922707,147.580124 62.349358,146.349472 
z"/>
</svg>