<svg version="1.1" id="Layer_1" xmlns="http://www.w3.org/2000/svg" xmlns:xlink="http://www.w3.org/1999/xlink" x="0px" y="0px"
	 width="100%" viewBox="0 0 506 272" enable-background="new 0 0 506 272" xml:space="preserve">
<path fill="#010101" opacity="1.000000" stroke="none" 
	d="
M312.000000,273.000000 
	C208.000015,273.000000 104.500038,273.000000 1.000042,273.000000 
	C1.000028,182.333374 1.000028,91.666733 1.000014,1.000078 
	C169.666611,1.000052 338.333221,1.000052 506.999878,1.000026 
	C506.999908,91.666588 506.999908,182.333176 506.999939,272.999878 
	C442.166656,273.000000 377.333344,273.000000 312.000000,273.000000 
M198.352371,196.120697 
	C201.731400,202.608582 205.110443,209.096466 208.996048,216.556976 
	C215.211609,200.446487 221.021194,185.492493 226.683243,170.482834 
	C227.069305,169.459427 226.647308,167.865433 226.098831,166.793900 
	C210.148407,135.632919 194.149658,104.496574 178.063568,73.405487 
	C177.508545,72.332733 175.985168,71.079742 174.899170,71.066612 
	C161.633026,70.906197 148.364273,70.962318 134.224915,70.962318 
	C155.711319,112.889351 176.867737,154.172501 198.352371,196.120697 
M300.376495,202.494354 
	C300.376495,158.759827 300.376495,115.025291 300.376495,71.324371 
	C288.305298,71.324371 276.759949,71.324371 265.224731,71.324371 
	C265.224731,119.787445 265.224731,167.887375 265.224731,216.248383 
	C276.931488,216.248383 288.472626,216.248383 300.376038,216.248383 
	C300.376038,211.777267 300.376038,207.633881 300.376495,202.494354 
M331.157288,95.499977 
	C331.157288,135.742432 331.157288,175.984894 331.157288,216.312958 
	C342.973145,216.312958 354.062164,216.312958 365.405457,216.312958 
	C365.405457,167.793884 365.405457,119.558784 365.405457,71.270493 
	C353.914001,71.270493 342.685730,71.270493 331.157288,71.270493 
	C331.157288,79.222824 331.157288,86.861412 331.157288,95.499977 
M87.380836,217.005295 
	C89.453011,217.005295 91.525177,217.005295 93.538582,217.005295 
	C93.538582,168.149887 93.538582,120.080238 93.538582,71.739136 
	C81.938133,71.739136 70.567696,71.739136 59.237534,71.739136 
	C59.237534,120.287201 59.237534,168.509872 59.237534,217.005295 
	C68.477554,217.005295 77.441277,217.005295 87.380836,217.005295 
M436.008911,83.473854 
	C424.774017,74.807495 413.207214,70.832550 404.365967,72.599731 
	C426.184235,98.607185 432.847046,175.157928 404.572937,216.032639 
	C417.682953,215.931061 428.585052,210.724274 438.075195,202.440369 
	C472.008057,172.820526 471.197693,114.239502 436.008911,83.473854 
M162.412323,206.081421 
	C155.418320,196.468536 148.424316,186.855667 141.798767,177.749191 
	C135.425400,192.136429 125.461777,205.566620 110.928734,216.185822 
	C132.280685,216.185822 152.823273,216.185822 173.657013,216.185822 
	C169.822067,212.762146 166.366104,209.676804 162.412323,206.081421 
z"/>
<path fill="#FDFDFD" opacity="1.000000" stroke="none" 
	d="
M198.188263,195.788177 
	C176.867737,154.172501 155.711319,112.889351 134.224915,70.962318 
	C148.364273,70.962318 161.633026,70.906197 174.899170,71.066612 
	C175.985168,71.079742 177.508545,72.332733 178.063568,73.405487 
	C194.149658,104.496574 210.148407,135.632919 226.098831,166.793900 
	C226.647308,167.865433 227.069305,169.459427 226.683243,170.482834 
	C221.021194,185.492493 215.211609,200.446487 208.996048,216.556976 
	C205.110443,209.096466 201.731400,202.608582 198.188263,195.788177 
z"/>
<path fill="#FDFDFD" opacity="1.000000" stroke="none" 
	d="
M300.376282,202.992432 
	C300.376038,207.633881 300.376038,211.777267 300.376038,216.248383 
	C288.472626,216.248383 276.931488,216.248383 265.224731,216.248383 
	C265.224731,167.887375 265.224731,119.787445 265.224731,71.324371 
	C276.759949,71.324371 288.305298,71.324371 300.376495,71.324371 
	C300.376495,115.025291 300.376495,158.759827 300.376282,202.992432 
z"/>
<path fill="#F9F9F9" opacity="1.000000" stroke="none" 
	d="
M331.157288,94.999985 
	C331.157288,86.861412 331.157288,79.222824 331.157288,71.270493 
	C342.685730,71.270493 353.914001,71.270493 365.405457,71.270493 
	C365.405457,119.558784 365.405457,167.793884 365.405457,216.312958 
	C354.062164,216.312958 342.973145,216.312958 331.157288,216.312958 
	C331.157288,175.984894 331.157288,135.742432 331.157288,94.999985 
z"/>
<path fill="#FCFCFC" opacity="1.000000" stroke="none" 
	d="
M86.892921,217.005295 
	C77.441277,217.005295 68.477554,217.005295 59.237534,217.005295 
	C59.237534,168.509872 59.237534,120.287201 59.237534,71.739136 
	C70.567696,71.739136 81.938133,71.739136 93.538582,71.739136 
	C93.538582,120.080238 93.538582,168.149887 93.538582,217.005295 
	C91.525177,217.005295 89.453011,217.005295 86.892921,217.005295 
z"/>
<path fill="#FCFCFC" opacity="1.000000" stroke="none" 
	d="
M436.279205,83.705734 
	C471.197693,114.239502 472.008057,172.820526 438.075195,202.440369 
	C428.585052,210.724274 417.682953,215.931061 404.572937,216.032639 
	C432.847046,175.157928 426.184235,98.607185 404.365967,72.599731 
	C413.207214,70.832550 424.774017,74.807495 436.279205,83.705734 
z"/>
<path fill="#F5F5F5" opacity="1.000000" stroke="none" 
	d="
M162.661224,206.336456 
	C166.366104,209.676804 169.822067,212.762146 173.657013,216.185822 
	C152.823273,216.185822 132.280685,216.185822 110.928734,216.185822 
	C125.461777,205.566620 135.425400,192.136429 141.798767,177.749191 
	C148.424316,186.855667 155.418320,196.468536 162.661224,206.336456 
z"/>
</svg>